<svg width="237" height="180" viewBox="0 0 237 196" fill="none" xmlns="http://www.w3.org/2000/svg">
<path d="M114.994 178.096L4.67599 112.92C1.16399 110.946 -1.84701 107.711 1.57599 105.589L112.286 41.8C113.946 40.77 116.467 40.095 118.159 41.08L233.945 108.27C237.457 110.308 238.087 115.987 234.588 118.044L129.532 177.994C127.326 179.273 124.826 179.955 122.277 179.973C119.727 179.99 117.217 179.344 114.994 178.096V178.096Z" fill="#5B36A0"/>
<path d="M114.994 175.088L4.67599 109.91C1.16399 107.935 -1.84701 104.7 1.57599 102.578L112.286 38.79C113.946 37.761 116.467 37.086 118.159 38.07L233.945 105.26C237.457 107.299 238.087 112.977 234.588 115.035L129.532 174.984C127.327 176.263 124.826 176.945 122.277 176.963C119.727 176.981 117.217 176.335 114.994 175.087V175.088Z" fill="#6862E6"/>
<path style="mix-blend-mode:multiply" opacity="0.25" d="M124.09 89.094L102.322 101.512C102.322 101.512 135.855 121.969 142.712 124.85L155.249 106.843" fill="url(#paint0_linear)"/>
<path style="mix-blend-mode:multiply" opacity="0.25" d="M116.57 148.67L94.796 136.277L73.022 148.695C73.022 148.695 84.362 155.615 95.202 161.969C102.084 157.101 108.973 152.181 116.57 148.669V148.67Z" fill="url(#paint1_linear)"/>
<path style="mix-blend-mode:multiply" opacity="0.46" d="M69.658 72.142L55.847 80.02C55.847 80.02 57.017 87.242 63.875 90.123L81.957 78.547" fill="url(#paint2_linear)"/>
<path d="M76.418 80.02C81.0185 80.02 84.748 77.3941 84.748 74.155C84.748 70.9158 81.0185 68.29 76.418 68.29C71.8175 68.29 68.088 70.9158 68.088 74.155C68.088 77.3941 71.8175 80.02 76.418 80.02Z" fill="#68E1FD"/>
<path d="M76.412 73.248C79.8583 73.248 82.652 72.105 82.652 70.695C82.652 69.285 79.8583 68.142 76.412 68.142C72.9657 68.142 70.172 69.285 70.172 70.695C70.172 72.105 72.9657 73.248 76.412 73.248Z" fill="#974C26"/>
<path d="M76.187 66.438C76.187 65.287 76.148 64.135 76.058 62.984C76.032 62.684 76.004 62.386 75.974 62.09L75.91 61.505C75.91 61.332 75.82 60.862 75.82 60.907C75.781 60.671 75.74 60.437 75.698 60.207C75.0175 56.299 73.4991 52.5846 71.247 49.319C70.3994 51.3354 69.9766 53.5049 70.005 55.692C70.005 56.335 70.056 56.978 70.108 57.582V57.962C70.3615 59.4539 70.749 60.9198 71.266 62.342C71.6345 63.3786 72.0839 64.3847 72.61 65.351C73.1778 66.4389 73.7937 67.5009 74.456 68.534C74.971 69.344 75.46 70.064 75.956 70.753C76.11 69.319 76.18 67.878 76.186 66.438H76.187ZM72.913 53.492C72.946 53.3438 72.946 53.1902 72.913 53.042C73.071 53.205 73.228 53.372 73.383 53.544C73.2281 53.4999 73.0668 53.4823 72.906 53.492H72.913Z" fill="#999A1C"/>
<path d="M78.329 67.325C78.972 66.355 79.539 65.395 80.085 64.348C80.226 64.082 80.364 63.816 80.497 63.55L80.76 63.016L81.011 62.463L81.288 61.82C82.8297 58.1617 83.5605 54.2128 83.43 50.245C81.6219 51.483 80.0889 53.0811 78.927 54.939C78.5936 55.475 78.2823 56.0244 77.994 56.586L77.866 56.823L77.833 56.926C77.711 57.216 77.589 57.506 77.473 57.801C77.0465 58.9215 76.7006 60.0711 76.438 61.241C76.1874 62.3133 76.0216 63.4037 75.942 64.502C75.8284 65.7227 75.7727 66.9481 75.775 68.174C75.775 69.132 75.775 70.007 75.833 70.849C76.688 69.711 77.55 68.541 78.329 67.325V67.325ZM82.574 54.663C82.675 54.55 82.75 54.416 82.793 54.27C82.84 54.493 82.881 54.708 82.915 54.914C82.815 54.814 82.7 54.729 82.575 54.663H82.574Z" fill="#999A1C"/>
<path d="M78.284 70.193C78.931 69.872 79.574 69.525 80.214 69.152L80.696 68.856L81.011 68.656L81.32 68.438L81.68 68.174C83.691 66.6984 85.3588 64.805 86.569 62.624C85.1959 62.7121 83.8558 63.0821 82.632 63.711C82.278 63.891 81.937 64.091 81.596 64.296L81.449 64.386L81.397 64.431L80.921 64.785C80.328 65.252 79.769 65.762 79.249 66.309C78.768 66.807 78.327 67.343 77.929 67.91C77.4826 68.5413 77.0538 69.1849 76.643 69.84C76.335 70.354 76.058 70.836 75.813 71.306C76.643 70.959 77.473 70.598 78.283 70.193H78.284ZM84.664 64.727C84.7551 64.6988 84.8388 64.6506 84.909 64.586C84.8621 64.7227 84.8108 64.8577 84.755 64.991C84.7382 64.9013 84.7079 64.8146 84.665 64.734V64.727H84.664ZM76.187 66.438C76.187 65.287 76.148 64.135 76.058 62.984C76.032 62.684 76.004 62.386 75.974 62.09L75.91 61.505C75.91 61.332 75.82 60.862 75.82 60.907C75.781 60.671 75.74 60.437 75.698 60.207C75.0175 56.299 73.4991 52.5846 71.247 49.319C70.3994 51.3354 69.9766 53.5049 70.005 55.692C70.005 56.335 70.056 56.978 70.108 57.582V57.962C70.3615 59.4539 70.749 60.9198 71.266 62.342C71.6345 63.3786 72.0839 64.3847 72.61 65.351C73.1778 66.4389 73.7937 67.5009 74.456 68.534C74.971 69.344 75.46 70.064 75.956 70.753C76.11 69.319 76.18 67.878 76.186 66.438H76.187ZM72.913 53.492C72.946 53.3438 72.946 53.1902 72.913 53.042C73.071 53.205 73.228 53.372 73.383 53.544C73.2281 53.4999 73.0668 53.4823 72.906 53.492H72.913Z" fill="#999A1C"/>
<path d="M78.329 67.325C78.972 66.355 79.539 65.395 80.085 64.348C80.226 64.082 80.364 63.816 80.497 63.55L80.76 63.016L81.011 62.463L81.288 61.82C82.8297 58.1617 83.5605 54.2128 83.43 50.245C81.6219 51.483 80.0889 53.0811 78.927 54.939C78.5936 55.475 78.2823 56.0244 77.994 56.586L77.866 56.823L77.833 56.926C77.711 57.216 77.589 57.506 77.473 57.801C77.0465 58.9215 76.7006 60.0711 76.438 61.241C76.1874 62.3133 76.0216 63.4037 75.942 64.502C75.8284 65.7227 75.7727 66.9481 75.775 68.174C75.775 69.132 75.775 70.007 75.833 70.849C76.688 69.711 77.55 68.541 78.329 67.325V67.325ZM82.574 54.663C82.675 54.55 82.75 54.416 82.793 54.27C82.84 54.493 82.881 54.708 82.915 54.914C82.815 54.814 82.7 54.729 82.575 54.663H82.574Z" fill="#999A1C"/>
<path d="M78.284 70.193C78.931 69.872 79.574 69.525 80.214 69.152L80.696 68.856L81.011 68.656L81.32 68.438L81.68 68.174C83.6909 66.6984 85.3588 64.805 86.569 62.624C85.1959 62.7121 83.8557 63.0821 82.632 63.711C82.278 63.891 81.937 64.091 81.596 64.296L81.449 64.386L81.397 64.431L80.921 64.785C80.328 65.252 79.769 65.762 79.249 66.309C78.768 66.807 78.327 67.343 77.929 67.91C77.4826 68.5413 77.0537 69.1849 76.643 69.84C76.335 70.354 76.058 70.836 75.813 71.306C76.643 70.959 77.473 70.598 78.283 70.193H78.284ZM84.664 64.727C84.7551 64.6988 84.8388 64.6506 84.909 64.586C84.8621 64.7227 84.8108 64.8577 84.755 64.991C84.7382 64.9013 84.7078 64.8146 84.665 64.734V64.727H84.664Z" fill="#999A1C"/>
<path d="M132.735 84.245L120.687 90.033C120.233 90.2512 119.847 90.5889 119.571 91.0098C119.295 91.4306 119.138 91.9188 119.118 92.422C119.099 92.9251 119.216 93.4241 119.458 93.8654C119.701 94.3067 120.059 94.6737 120.494 94.927L149.048 111.583C149.665 111.944 150.398 112.052 151.093 111.885C151.788 111.719 152.392 111.29 152.779 110.689L159.719 99.898" fill="#A1482D"/>
<path d="M198.264 56.328L102.194 0.984002C101.535 0.60514 100.788 0.406198 100.028 0.407123C99.2675 0.408048 98.521 0.608809 97.8628 0.989274C97.2047 1.36974 96.6582 1.91654 96.2781 2.57484C95.8979 3.23315 95.6975 3.97982 95.697 4.74V62.315C95.697 63.602 96.383 64.791 97.497 65.435L199.917 124.541C200.27 124.745 200.671 124.853 201.079 124.853C201.487 124.853 201.888 124.746 202.242 124.542C202.595 124.338 202.888 124.044 203.092 123.691C203.296 123.337 203.403 122.936 203.403 122.528V65.19C203.401 63.3913 202.925 61.6248 202.023 60.0688C201.12 58.5129 199.824 57.2225 198.263 56.328H198.264Z" fill="#F47B56"/>
<path d="M102.2 5.33799L195.369 58.926C196.364 59.4986 197.19 60.3233 197.765 61.3169C198.34 62.3106 198.643 63.4381 198.643 64.586V107.743C198.642 108.156 198.533 108.562 198.327 108.919C198.12 109.277 197.823 109.574 197.466 109.781C197.108 109.988 196.703 110.098 196.29 110.099C195.877 110.1 195.471 109.993 195.112 109.788L100.096 55.306C99.7404 55.1021 99.445 54.8079 99.2395 54.4532C99.0341 54.0985 98.9259 53.6959 98.926 53.286V7.23499C98.9258 6.85168 99.0264 6.47505 99.2178 6.1429C99.4091 5.81074 99.6844 5.53474 100.016 5.34256C100.348 5.15039 100.724 5.04881 101.107 5.04801C101.491 5.04721 101.868 5.14721 102.2 5.33799V5.33799Z" fill="white"/>
<path d="M141.402 86.7402C142.501 86.5286 143.195 85.3394 142.953 84.0839C142.712 82.8284 141.625 81.9822 140.526 82.1938C139.428 82.4054 138.733 83.5946 138.975 84.8501C139.216 86.1056 140.303 86.9518 141.402 86.7402Z" fill="#AB643C"/>
<path opacity="0.32" d="M127.242 63.891L170.539 89.898L191.928 77.467L153.712 55.229" fill="url(#paint3_linear)"/>
<path d="M180.748 58.714L133.938 30.18C133.687 30.0352 133.403 29.9602 133.113 29.9626C132.824 29.9651 132.541 30.0449 132.292 30.1939C132.044 30.3429 131.841 30.5556 131.703 30.8099C131.564 31.0642 131.497 31.3508 131.507 31.64V47.897C131.505 48.1913 131.579 48.481 131.722 48.7381C131.865 48.9952 132.073 49.2108 132.324 49.364L179.127 77.294C179.373 77.4336 179.651 77.5062 179.934 77.5043C180.217 77.5025 180.495 77.4264 180.739 77.2836C180.983 77.1408 181.186 76.9364 181.326 76.6908C181.467 76.4451 181.54 76.1669 181.539 75.884L181.783 60.727C181.801 60.3303 181.715 59.9359 181.533 59.5827C181.352 59.2296 181.081 58.9301 180.748 58.714V58.714Z" fill="#E2AC00"/>
<path d="M169.549 67.08C171.228 69.428 174.18 70.084 176.136 68.553C178.091 67.023 178.316 63.878 176.637 61.537C174.958 59.197 172.006 58.534 170.05 60.065C168.095 61.595 167.87 64.734 169.549 67.081V67.08Z" fill="white"/>
<path d="M164.956 55.814L145.864 44.322C145.7 44.247 145.515 44.2354 145.343 44.2894C145.171 44.3435 145.026 44.4593 144.934 44.6145C144.843 44.7697 144.813 44.9532 144.849 45.1296C144.885 45.3059 144.986 45.4625 145.131 45.569L164.223 57.061C164.387 57.136 164.572 57.1476 164.744 57.0935C164.916 57.0395 165.061 56.9237 165.153 56.7685C165.244 56.6133 165.274 56.4297 165.238 56.2534C165.202 56.0771 165.101 55.9205 164.956 55.814V55.814ZM164.171 60.483L137.856 44.643C137.695 44.5864 137.519 44.5883 137.359 44.6486C137.199 44.7089 137.065 44.8235 136.981 44.9725C136.898 45.1215 136.869 45.2952 136.901 45.4631C136.932 45.6311 137.022 45.7826 137.154 45.891L163.438 61.737C163.602 61.8132 163.788 61.8257 163.961 61.7718C164.134 61.718 164.28 61.6019 164.371 61.446C164.463 61.2901 164.493 61.1057 164.456 60.9288C164.419 60.7518 164.317 60.595 164.171 60.489V60.483Z" fill="#F2F2F2"/>
<path d="M171.408 61.865L124.624 33.338C124.373 33.193 124.089 33.1177 123.799 33.12C123.509 33.1223 123.226 33.2021 122.978 33.3512C122.729 33.5002 122.526 33.713 122.387 33.9674C122.249 34.2218 122.182 34.5086 122.192 34.798V51.048C122.185 51.648 122.492 52.207 123.002 52.521L169.806 80.451C170.054 80.5937 170.336 80.6678 170.623 80.6656C170.91 80.6634 171.19 80.5849 171.437 80.4384C171.683 80.2918 171.886 80.0823 172.024 79.8315C172.163 79.5807 172.232 79.2975 172.225 79.011L172.469 63.852C172.48 63.4572 172.388 63.0664 172.202 62.718C172.015 62.3697 171.742 62.0757 171.408 61.865Z" fill="#F47B56"/>
<path d="M160.209 70.232C161.888 72.579 164.84 73.235 166.796 71.705C168.751 70.175 168.976 67.029 167.297 64.688C165.618 62.348 162.666 61.685 160.71 63.216C158.755 64.746 158.53 67.885 160.209 70.232Z" fill="white"/>
<path d="M155.616 58.965L136.51 47.473C136.346 47.3968 136.16 47.3843 135.987 47.4381C135.814 47.492 135.668 47.6081 135.577 47.764C135.485 47.9199 135.455 48.1043 135.492 48.2812C135.529 48.4582 135.631 48.615 135.777 48.721L154.869 60.213C155.033 60.2892 155.219 60.3017 155.392 60.2478C155.565 60.194 155.711 60.0779 155.802 59.922C155.894 59.7661 155.924 59.5817 155.887 59.4048C155.85 59.2278 155.748 59.071 155.602 58.965H155.615H155.616ZM154.825 63.666L128.515 47.801C128.351 47.7248 128.165 47.7123 127.992 47.7661C127.819 47.82 127.673 47.9361 127.582 48.092C127.49 48.2479 127.46 48.4323 127.497 48.6092C127.534 48.7862 127.636 48.943 127.782 49.049L154.098 64.888C154.262 64.9642 154.448 64.9767 154.621 64.9228C154.794 64.869 154.94 64.7529 155.031 64.597C155.123 64.4411 155.153 64.2567 155.116 64.0798C155.079 63.9028 154.977 63.746 154.831 63.64L154.825 63.666Z" fill="#F2F2F2"/>
<path d="M159.668 63.782L112.872 35.254C112.621 35.109 112.337 35.0337 112.047 35.036C111.758 35.0383 111.474 35.1181 111.226 35.2672C110.977 35.4162 110.774 35.629 110.635 35.8834C110.497 36.1378 110.43 36.4246 110.44 36.714V52.965C110.438 53.2591 110.512 53.5487 110.655 53.8056C110.799 54.0624 111.006 54.2779 111.257 54.431L158.06 82.361C158.308 82.5037 158.59 82.5778 158.877 82.5756C159.164 82.5734 159.444 82.4949 159.691 82.3484C159.937 82.2018 160.14 81.9923 160.278 81.7415C160.417 81.4907 160.486 81.2075 160.479 80.921L160.723 65.762C160.744 64.962 160.343 64.211 159.668 63.782V63.782Z" fill="#68E1FD"/>
<path d="M159.668 63.782L112.872 35.254C112.621 35.109 112.337 35.0337 112.047 35.036C111.758 35.0383 111.474 35.1181 111.226 35.2672C110.977 35.4162 110.774 35.629 110.635 35.8834C110.497 36.1378 110.43 36.4246 110.44 36.714V52.965C110.438 53.2591 110.512 53.5487 110.655 53.8056C110.799 54.0624 111.006 54.2779 111.257 54.431L158.06 82.361C158.308 82.5037 158.59 82.5778 158.877 82.5756C159.164 82.5734 159.444 82.4949 159.691 82.3484C159.937 82.2018 160.14 81.9923 160.278 81.7415C160.417 81.4907 160.486 81.2075 160.479 80.921L160.723 65.762C160.744 64.962 160.343 64.211 159.668 63.782V63.782Z" fill="#68E1FD"/>
<path d="M148.463 72.148C150.142 74.496 153.094 75.152 155.05 73.621C157.005 72.091 157.23 68.946 155.551 66.605C153.873 64.265 150.92 63.602 148.965 65.132C147.009 66.662 146.803 69.802 148.463 72.148V72.148Z" fill="white"/>
<path d="M143.87 60.881L124.772 49.39C124.608 49.3129 124.421 49.2998 124.248 49.3533C124.075 49.4068 123.928 49.5231 123.836 49.6793C123.744 49.8355 123.714 50.0205 123.751 50.1978C123.789 50.3752 123.891 50.5321 124.038 50.638L143.13 62.13C143.294 62.2071 143.481 62.2202 143.654 62.1667C143.827 62.1132 143.974 61.9969 144.066 61.8407C144.158 61.6845 144.188 61.4995 144.151 61.3222C144.113 61.1448 144.011 60.9879 143.864 60.882H143.87V60.881ZM143.079 65.557L116.763 49.717C116.599 49.6408 116.413 49.6283 116.24 49.6821C116.067 49.736 115.921 49.8521 115.83 50.008C115.738 50.1639 115.708 50.3483 115.745 50.5252C115.782 50.7022 115.884 50.859 116.03 50.965L142.345 66.805C142.509 66.8821 142.696 66.8952 142.869 66.8417C143.042 66.7882 143.189 66.6719 143.281 66.5157C143.373 66.3595 143.403 66.1745 143.366 65.9972C143.328 65.8198 143.226 65.6629 143.079 65.557Z" fill="#F2F2F2"/>
<path d="M98.25 62.187C95.2261 64.789 92.9391 68.1399 91.618 71.904C89.29 78.334 95.111 88.843 95.111 88.843L104.168 81.673" fill="#FF8F6F"/>
<path d="M97.273 147.21L94.815 145.853L95.459 142.342C95.459 142.342 99.119 142.689 99.44 143.988" fill="#003B94"/>
<path d="M98.173 147.158C98.726 146.818 99.305 146.515 99.878 146.213C101.299 145.435 103.351 144.631 104.226 143.171C104.405 142.876 104.49 142.533 104.469 142.188C104.449 141.844 104.323 141.514 104.11 141.242C102.824 139.686 100.006 142.245 98.566 140.522C98.283 140.181 98.147 134.772 98.147 134.772L92.667 136.252C92.667 136.252 91.741 147.12 91.844 147.789C91.946 148.457 93.831 149.075 93.831 149.075C94.3925 148.956 94.9285 148.738 95.414 148.432C95.986 148.014 95.465 142.914 96.198 143.628C96.932 144.342 97.253 147.133 97.253 147.133C97.558 147.179 97.867 147.187 98.173 147.158V147.158Z" fill="#F47B56"/>
<path d="M107.738 152.464L105.281 151.126L105.924 147.615C105.924 147.615 109.584 147.962 109.906 149.261" fill="#003B94"/>
<path d="M108.665 152.412C109.218 152.072 109.797 151.769 110.369 151.467C111.791 150.689 113.843 149.885 114.718 148.425C114.897 148.13 114.982 147.787 114.961 147.442C114.941 147.098 114.815 146.768 114.602 146.496C113.315 144.94 110.498 147.499 109.057 145.776C108.774 145.435 108.639 140.026 108.639 140.026L103.159 141.506C103.159 141.506 102.226 152.412 102.329 153.056C102.431 153.699 104.316 154.342 104.316 154.342C104.878 154.223 105.413 154.005 105.899 153.699C106.471 153.281 105.95 148.181 106.683 148.895C107.417 149.609 107.738 152.4 107.738 152.4C108.045 152.442 108.357 152.446 108.665 152.412Z" fill="#F47B56"/>
<path d="M89.882 117.133L88.267 138.721C88.267 138.721 90.84 142.271 99.467 140.297L99.55 125.744L89.882 117.133ZM99.846 121.41C99.659 123.268 99.846 143.77 99.846 143.77C99.846 143.77 102.232 148.232 112.621 143.77L112.473 126.348" fill="#3E2928"/>
<path d="M89.078 124.264C89.785 124.754 90.03 122.239 90.769 122.67C93.4605 124.233 96.3169 125.492 99.286 126.425H99.35C99.4208 126.391 99.4978 126.371 99.5764 126.367C99.655 126.363 99.7337 126.375 99.8076 126.402C99.8815 126.429 99.9492 126.471 100.007 126.524C100.064 126.578 100.11 126.643 100.142 126.715C101.976 127.262 103.842 127.691 105.732 128.001C108.156 128.387 110.163 126.592 112.652 126.471C112.652 116.94 112.698 89.814 108.639 84.026L96.629 79.988C96.571 80.978 90.801 87.666 90.943 95.821C91.103 105.011 89.907 113.679 89.701 116.554C89.669 117.043 89.103 123.744 89.078 124.264V124.264Z" fill="#3E2928"/>
<path d="M109.745 73.068L108.639 84.001C108.639 84.001 99.679 84.361 95.819 81.698V72.425" fill="#FF8F6F"/>
<path d="M121.137 65.872L120.224 67.119C120.711 66.1043 121.14 65.063 121.51 64C121.768 63.274 120.603 62.984 120.346 63.711L120.211 64.084C120.323 63.698 120.428 63.31 120.526 62.92C120.547 62.8428 120.553 62.7621 120.543 62.6826C120.533 62.6031 120.506 62.5265 120.466 62.4573C120.426 62.3881 120.372 62.3277 120.308 62.2796C120.244 62.2315 120.171 62.1968 120.093 62.1774C120.015 62.158 119.934 62.1544 119.855 62.1668C119.776 62.1792 119.7 62.2073 119.632 62.2495C119.564 62.2917 119.505 62.3471 119.458 62.4124C119.412 62.4778 119.379 62.5518 119.362 62.63C119.11 63.6395 118.807 64.6358 118.455 65.615C118.652 64.7457 118.794 63.865 118.88 62.978C118.957 62.213 117.754 62.245 117.683 62.978C117.583 63.988 117.403 64.988 117.143 65.968C117.143 65.6227 117.11 65.2783 117.046 64.939C117.037 64.8537 117.01 64.7712 116.967 64.6971C116.924 64.6229 116.866 64.5588 116.796 64.509C116.763 64.374 116.725 64.2405 116.68 64.109C116.634 63.9742 116.543 63.8598 116.421 63.7859C116.3 63.7119 116.156 63.6831 116.015 63.7046C115.875 63.7261 115.746 63.7965 115.652 63.9034C115.558 64.0102 115.505 64.1468 115.502 64.289L115.425 68.791C115.207 69.258 114.924 69.691 114.583 70.078C115.161 70.478 115.72 70.908 116.255 71.364C116.733 71.767 117.188 72.197 117.619 72.65C118.005 72.17 118.376 71.681 118.732 71.184C118.776 71.1464 118.815 71.103 118.847 71.055C119.919 69.4697 121.026 67.9087 122.167 66.373C122.643 65.846 121.594 65.261 121.137 65.872V65.872Z" fill="#FFB5A9"/>
<path d="M104.059 63.1C104.059 63.1 108.292 64.238 110.009 66.959C111.085 68.8416 112.032 70.7943 112.846 72.804L115.972 67.949C115.972 67.949 119.767 69.113 121.272 70.978C121.272 70.978 116.77 80.818 112.846 81.66C108.922 82.502 104.754 75.885 104.754 75.885C104.754 75.885 103.892 78.65 104.059 75.698" fill="#FF8F6F"/>
<path d="M106.748 73.615C105.518 72.6144 104.589 71.292 104.065 69.795C103.557 68.065 104.194 66.547 104.785 64.939C105.426 63.3454 105.8 61.6571 105.892 59.942C105.944 58.258 105.751 56.572 105.635 54.894C105.619 54.8223 105.619 54.7477 105.635 54.676C105.069 52.778 103.911 51.171 101.627 50.978C95.716 50.476 95.381 57.023 95.427 59.685C95.471 62.348 95.755 64.148 93.793 65.261C91.831 66.373 90.415 69.293 92.287 71.653C94.159 74.013 92.48 73.152 91.232 75.248C89.985 77.345 90.306 79.962 92.866 80.908C95.426 81.853 107.326 80.078 108.42 78.978C108.808 78.535 109.009 77.9584 108.98 77.37C108.713 75.8902 107.92 74.5567 106.748 73.615Z" fill="#007F68"/>
<path d="M112.563 19.62C113.565 21.0617 114.144 22.7547 114.235 24.508C114.347 25.3107 114.152 26.1262 113.688 26.791C113.491 27.0079 113.227 27.1528 112.938 27.203C112.649 27.2531 112.352 27.2056 112.093 27.068C111.768 26.9381 111.474 26.7404 111.231 26.488C111.013 26.2835 110.826 26.0476 110.678 25.788L110.524 25.486C110.482 25.565 110.43 25.638 110.369 25.704C110.216 25.824 110.034 25.901 109.842 25.929C109.52 25.989 109.188 25.949 108.89 25.814C108.179 25.5063 107.587 24.9756 107.204 24.302C106.743 23.5706 106.485 22.7293 106.458 21.865C106.363 21.165 106.582 20.459 107.056 19.935C107.26 19.7384 107.52 19.6095 107.799 19.5658C108.079 19.5221 108.366 19.5659 108.62 19.691C108.878 19.794 109.115 19.942 109.32 20.129C109.496 20.278 109.652 20.449 109.784 20.637L109.9 20.843V20.27L111.186 20.772L111.315 24.386C111.324 24.645 111.404 24.896 111.546 25.113C111.667 25.322 111.852 25.486 112.074 25.583C112.696 25.827 112.983 25.291 112.936 23.974C112.871 22.6705 112.441 21.4115 111.694 20.341C111.023 19.2518 110.026 18.4016 108.844 17.911C108.415 17.6932 107.931 17.6092 107.454 17.6698C106.977 17.7304 106.53 17.9329 106.169 18.251C105.785 18.6369 105.492 19.1043 105.313 19.6185C105.133 20.1328 105.072 20.6808 105.133 21.222C105.207 22.6008 105.651 23.9341 106.42 25.081C107.032 26.2137 107.996 27.1165 109.166 27.653C109.574 27.823 110.011 27.908 110.453 27.903C110.74 27.923 111.028 27.87 111.289 27.749L111.546 27.608L112.325 29.055L112.196 29.145C112.074 29.213 111.947 29.274 111.816 29.325C111.611 29.414 111.395 29.475 111.173 29.505C110.889 29.543 110.602 29.543 110.318 29.505C109.945 29.4604 109.58 29.3673 109.231 29.228C108.241 28.8022 107.36 28.1558 106.658 27.338C105.826 26.4178 105.152 25.3659 104.664 24.225C104.175 23.1358 103.896 21.9645 103.84 20.772C103.771 19.7695 103.975 18.7671 104.432 17.872C104.811 17.1207 105.466 16.5447 106.259 16.264C107.09 15.9902 107.994 16.0358 108.793 16.392C110.354 17.0516 111.671 18.1799 112.563 19.621V19.62ZM109.726 24.193C109.937 23.923 110.032 23.581 109.99 23.241C109.98 22.8217 109.862 22.412 109.649 22.051C109.474 21.7359 109.2 21.4874 108.87 21.344C108.743 21.279 108.6 21.254 108.459 21.2724C108.318 21.2908 108.186 21.3517 108.08 21.447C107.969 21.5732 107.886 21.7218 107.837 21.8827C107.788 22.0436 107.774 22.2132 107.796 22.38C107.811 22.804 107.937 23.216 108.163 23.576C108.348 23.902 108.635 24.16 108.98 24.309C109.227 24.436 109.528 24.389 109.726 24.193V24.193ZM188.512 89.255C189.515 90.6956 190.095 92.3887 190.184 94.142C190.296 94.9446 190.101 95.76 189.638 96.425C189.44 96.6412 189.176 96.7857 188.887 96.8358C188.598 96.8859 188.301 96.8389 188.042 96.702C187.718 96.5703 187.424 96.3728 187.18 96.122C186.963 95.9164 186.777 95.6807 186.627 95.422L186.473 95.12C186.429 95.198 186.377 95.2711 186.318 95.338C186.166 95.458 185.984 95.537 185.791 95.563C185.472 95.627 185.141 95.589 184.845 95.454C184.133 95.1446 183.542 94.6117 183.16 93.936C182.694 93.204 182.434 92.3601 182.407 91.493C182.308 90.793 182.527 90.085 183.006 89.563C183.209 89.3672 183.467 89.2387 183.745 89.195C184.024 89.1514 184.309 89.1947 184.562 89.319C184.82 89.421 185.058 89.569 185.263 89.756C185.439 89.908 185.594 90.081 185.727 90.271L185.849 90.476V89.904L187.135 90.399L187.264 94.013C187.275 94.272 187.355 94.523 187.495 94.74C187.616 94.95 187.801 95.114 188.023 95.21C188.666 95.454 188.93 94.92 188.891 93.602C188.826 92.2965 188.396 91.0354 187.65 89.962C186.979 88.8767 185.985 88.029 184.807 87.538C184.379 87.32 183.895 87.2353 183.418 87.2948C182.941 87.3544 182.493 87.5554 182.131 87.872C181.749 88.2623 181.459 88.7339 181.284 89.2516C181.109 89.7693 181.054 90.3197 181.121 90.862C181.193 92.2409 181.637 93.5745 182.407 94.721C183.043 95.827 184.018 96.6995 185.187 97.21C185.594 97.38 186.031 97.467 186.473 97.467C186.76 97.484 187.047 97.431 187.309 97.312L187.566 97.171L188.345 98.618L188.215 98.708C188.094 98.777 187.967 98.837 187.836 98.888C187.63 98.9732 187.414 99.0336 187.193 99.068C186.907 99.1059 186.617 99.1059 186.331 99.068C185.96 99.021 185.597 98.9259 185.251 98.785C184.261 98.361 183.381 97.7166 182.678 96.901C181.845 95.9785 181.171 94.9242 180.683 93.781C180.194 92.6922 179.915 91.5211 179.86 90.329C179.79 89.3284 179.995 88.3278 180.452 87.435C180.832 86.6827 181.486 86.1047 182.279 85.82C183.113 85.5495 184.017 85.5958 184.819 85.95C186.362 86.6437 187.652 87.7983 188.512 89.255V89.255ZM185.675 93.827C185.888 93.558 185.985 93.216 185.945 92.875C185.934 92.4551 185.814 92.0451 185.598 91.685C185.427 91.3698 185.155 91.121 184.826 90.978C184.7 90.9119 184.557 90.8858 184.415 90.9032C184.274 90.9205 184.141 90.9804 184.035 91.075C183.922 91.2001 183.838 91.3482 183.788 91.5091C183.738 91.67 183.723 91.8399 183.745 92.007C183.76 92.429 183.887 92.84 184.112 93.197C184.297 93.525 184.584 93.785 184.929 93.937C185.049 93.9995 185.186 94.0226 185.32 94.0028C185.454 93.9831 185.578 93.9215 185.675 93.827" fill="#F47B56"/>
<path style="mix-blend-mode:multiply" opacity="0.25" d="M60.324 116.676L38.55 104.29L16.782 116.702C16.782 116.702 28.895 124.264 39.733 130.618C46.616 125.756 52.733 120.194 60.324 116.676V116.676Z" fill="url(#paint4_linear)"/>
<g filter="url(#filter0_d)">
<path d="M21 81.878V108.813L41.984 120.83L65.678 106.817V79.883" fill="black"/>
</g>
<path d="M21 81.878V108.813L41.984 120.83L65.678 106.817V79.883" fill="#FF9271"/>
<path d="M41.984 93.896V120.831L65.678 106.818V79.883L41.984 93.896Z" fill="#DF5C34"/>
<path d="M21 81.878L45.347 68L65.677 79.883L41.984 93.896L21 81.878Z" fill="#F47B56"/>
<path d="M42.541 74.182C45.0098 74.0154 47.4747 74.5584 49.645 75.747C50.888 76.478 51.567 77.241 51.663 78.037C51.759 78.832 51.349 79.524 50.382 80.107C49.9232 80.3905 49.4177 80.5902 48.889 80.697C48.455 80.8 48.009 80.846 47.563 80.832L47.076 80.794C47.122 80.903 47.152 81.017 47.166 81.134C47.1508 81.4108 47.0625 81.6786 46.91 81.91C46.656 82.34 46.294 82.696 45.86 82.942C44.8477 83.5435 43.6873 83.8501 42.51 83.827C41.2916 83.86 40.0878 83.5562 39.031 82.949C38.032 82.359 37.52 81.666 37.481 80.871C37.4848 80.45 37.607 80.0386 37.8335 79.6837C38.06 79.3288 38.3818 79.0448 38.762 78.864C39.127 78.6362 39.5246 78.4653 39.941 78.357C40.2727 78.2612 40.6142 78.2032 40.959 78.184H41.312L40.671 77.799L42.471 76.677L46.641 79.133C46.9598 79.3047 47.3163 79.3946 47.6785 79.3946C48.0406 79.3946 48.3971 79.3047 48.716 79.133C49.6 78.582 49.284 77.857 47.768 76.959C46.1569 76.0717 44.3253 75.6643 42.49 75.785C40.5448 75.8089 38.6418 76.356 36.981 77.369C35.47 78.314 34.721 79.441 34.733 80.749C34.733 82.032 35.533 83.173 37.09 84.09C38.79 85.04 40.719 85.5 42.663 85.418C44.5992 85.4499 46.5063 84.9438 48.172 83.956C48.7482 83.6141 49.265 83.1808 49.702 82.673C49.995 82.363 50.214 81.99 50.343 81.583L50.433 81.179L52.809 81.313C52.813 81.386 52.813 81.459 52.809 81.532C52.766 81.728 52.708 81.921 52.636 82.109C52.533 82.409 52.396 82.699 52.226 82.968C51.982 83.332 51.699 83.668 51.381 83.968C50.961 84.373 50.501 84.73 50.004 85.033C48.5739 85.8914 46.9899 86.4621 45.341 86.713C43.5439 87.0269 41.709 87.0593 39.902 86.809C38.2594 86.6156 36.6718 86.0969 35.232 85.283C34.0699 84.6673 33.1395 83.6906 32.581 82.5C32.3527 81.9806 32.2348 81.4194 32.2348 80.852C32.2348 80.2846 32.3527 79.7234 32.581 79.204C33.1344 77.9913 34.0556 76.9836 35.214 76.324C37.4208 74.9676 39.9511 74.2279 42.541 74.182V74.182ZM44.873 80.813C44.831 80.5938 44.7362 80.3882 44.5968 80.2139C44.4574 80.0397 44.2776 79.9021 44.073 79.813C43.5681 79.5157 42.9929 79.3586 42.407 79.358C41.8628 79.3373 41.3243 79.4753 40.857 79.755C40.473 79.942 40.226 80.328 40.217 80.755C40.275 81.2 40.562 81.582 40.972 81.762C41.4881 82.0569 42.0748 82.2056 42.669 82.192C43.2403 82.2064 43.8041 82.0598 44.296 81.769C44.669 81.599 44.906 81.223 44.899 80.813" fill="#3E2928"/>
<defs>
<filter id="filter0_d" x="-29" y="54.883" width="144.678" height="140.947" filterUnits="userSpaceOnUse" color-interpolation-filters="sRGB">
<feFlood flood-opacity="0" result="BackgroundImageFix"/>
<feColorMatrix in="SourceAlpha" type="matrix" values="0 0 0 0 0 0 0 0 0 0 0 0 0 0 0 0 0 0 127 0"/>
<feOffset dy="25"/>
<feGaussianBlur stdDeviation="25"/>
<feColorMatrix type="matrix" values="0 0 0 0 0.209139 0 0 0 0 0.0691446 0 0 0 0 0.478091 0 0 0 0.497159 0"/>
<feBlend mode="normal" in2="BackgroundImageFix" result="effect1_dropShadow"/>
<feBlend mode="normal" in="SourceGraphic" in2="effect1_dropShadow" result="shape"/>
</filter>
<linearGradient id="paint0_linear" x1="134.703" y1="102.273" x2="127.708" y2="111.751" gradientUnits="userSpaceOnUse">
<stop stop-color="#78B46A"/>
<stop offset="0.03" stop-color="#7F3500"/>
<stop offset="1" stop-color="white"/>
</linearGradient>
<linearGradient id="paint1_linear" x1="108.812" y1="143.62" x2="94.1314" y2="159.714" gradientUnits="userSpaceOnUse">
<stop stop-color="#78B46A"/>
<stop offset="0.03" stop-color="#7F3500"/>
<stop offset="1" stop-color="white"/>
</linearGradient>
<linearGradient id="paint2_linear" x1="76.9073" y1="76.0879" x2="65.9045" y2="88.1518" gradientUnits="userSpaceOnUse">
<stop stop-color="#78B46A"/>
<stop offset="0.03" stop-color="#7F3500"/>
<stop offset="1" stop-color="white"/>
</linearGradient>
<linearGradient id="paint3_linear" x1="179.648" y1="76.2239" x2="173.049" y2="71.4131" gradientUnits="userSpaceOnUse">
<stop stop-color="white" stop-opacity="0"/>
<stop offset="0.99" stop-color="#DC841E"/>
</linearGradient>
<linearGradient id="paint4_linear" x1="52.5661" y1="111.557" x2="37.6718" y2="127.886" gradientUnits="userSpaceOnUse">
<stop stop-color="#78B46A"/>
<stop offset="0.03" stop-color="#7F3500"/>
<stop offset="1" stop-color="white"/>
</linearGradient>
</defs>
</svg>
